<?xml version="1.0" standalone="no"?>
<!DOCTYPE svg PUBLIC "-//W3C//DTD SVG 20010904//EN"
 "http://www.w3.org/TR/2001/REC-SVG-20010904/DTD/svg10.dtd">
<svg version="1.0" xmlns="http://www.w3.org/2000/svg"
 width="300.000000pt" height="293.000000pt" viewBox="0 0 300.000000 293.000000"
 preserveAspectRatio="xMidYMid meet">
<metadata>
Created by potrace 1.10, written by Peter Selinger 2001-2011
</metadata>
<g transform="translate(0.000000,293.000000) scale(0.100000,-0.100000)"
fill="#4070ae" stroke="none">
<path d="M224 2901 c-64 -37 -133 -107 -167 -169 -59 -108 -57 -66 -57 -1272
0 -1207 -2 -1169 57 -1269 38 -65 100 -129 158 -162 l50 -29 1235 0 1235 0 50
29 c58 33 120 97 158 162 59 100 57 62 57 1275 0 1077 -1 1114 -20 1175 -34
112 -106 203 -205 260 l-50 29 -1225 0 -1225 0 -51 -29z m593 -488 c-4 -3 -7
0 -7 7 0 7 3 10 7 7 3 -4 3 -10 0 -14z m993 -33 c0 -5 -2 -10 -4 -10 -3 0 -8
5 -11 10 -3 6 -1 10 4 10 6 0 11 -4 11 -10z m-290 -80 c0 -5 -7 -10 -15 -10
-8 0 -15 5 -15 10 0 6 7 10 15 10 8 0 15 -4 15 -10z m410 -135 c0 -8 -4 -15
-10 -15 -5 0 -10 7 -10 15 0 8 5 15 10 15 6 0 10 -7 10 -15z m-393 -12 c-4 -3
-10 -3 -14 0 -3 4 0 7 7 7 7 0 10 -3 7 -7z m-211 -18 c8 -8 21 -12 28 -9 7 3
49 -12 93 -33 44 -21 79 -33 76 -27 -6 17 17 28 29 16 8 -8 8 -15 0 -25 -10
-11 -2 -15 42 -23 l54 -10 -9 24 c-5 14 -7 27 -4 30 10 10 69 9 83 -2 48 -38
82 -77 102 -116 37 -73 85 -95 93 -42 l4 27 14 -32 c7 -18 17 -33 21 -33 4 0
8 -8 9 -17 0 -11 3 -13 6 -5 6 16 23 16 23 -1 0 -8 11 -24 25 -37 30 -28 40
-71 44 -182 1 -45 22 -51 47 -13 20 31 26 27 30 -21 2 -20 12 -47 24 -59 28
-30 25 -46 -17 -102 -48 -62 -53 -109 -13 -118 15 -3 37 -17 49 -31 l22 -25
-36 -41 c-30 -35 -41 -67 -36 -100 0 -5 -4 -8 -10 -8 -5 0 -7 -5 -3 -12 5 -8
0 -9 -17 -4 -13 4 -37 11 -54 15 -45 10 -44 40 5 88 46 47 50 70 15 103 -30
28 -31 54 -5 115 l20 47 -23 19 c-32 25 -59 121 -51 181 4 27 1 61 -6 83 -12
37 -17 39 -62 20 -12 -5 -31 6 -64 37 -26 24 -54 42 -64 40 -11 -2 -17 3 -16
11 1 18 -81 87 -104 87 -11 0 -22 -5 -25 -11 -4 -5 -18 -15 -32 -20 -26 -10
-51 0 -199 79 -34 18 -75 34 -90 35 -28 2 -29 0 -29 -45 0 -56 -14 -70 -92
-94 -47 -14 -52 -18 -43 -34 17 -32 11 -49 -25 -72 -24 -16 -33 -28 -29 -40 3
-12 0 -18 -10 -18 -9 0 -16 5 -16 11 0 8 -5 7 -15 -1 -11 -9 -14 -22 -9 -46 5
-26 0 -44 -21 -80 -22 -37 -25 -48 -14 -55 12 -7 12 -10 0 -21 -11 -11 -14
-11 -18 0 -4 10 -11 8 -29 -9 -29 -27 -31 -49 -5 -49 31 0 42 -23 35 -73 -6
-44 -6 -46 35 -71 41 -27 45 -34 56 -119 4 -28 15 -57 26 -68 11 -11 17 -24
14 -29 -10 -15 15 -91 31 -97 9 -3 21 3 30 16 8 11 22 21 30 21 9 0 44 -27 79
-61 62 -59 64 -60 107 -54 39 6 47 3 98 -35 55 -41 55 -41 72 -21 13 17 28 21
81 21 69 0 82 9 65 43 -12 24 5 44 45 52 18 4 41 13 52 19 24 15 104 36 137
36 19 0 17 -4 -17 -27 -22 -15 -51 -38 -65 -50 -14 -13 -47 -38 -74 -55 l-49
-32 24 -19 24 -20 -30 7 c-56 14 -64 15 -96 6 -45 -13 -72 -39 -58 -57 9 -10
8 -13 -5 -13 -9 0 -16 -7 -16 -15 0 -8 -7 -15 -15 -15 -8 0 -15 4 -15 8 0 5
-49 34 -109 65 -114 59 -141 60 -94 3 48 -58 15 -45 -119 46 -49 32 -88 55
-88 51 0 -17 -27 35 -38 74 -15 50 -32 65 -32 28 0 -21 -4 -26 -16 -21 -9 3
-20 6 -25 6 -4 0 -16 26 -24 58 -25 89 -34 107 -47 94 -23 -23 -31 -12 -25 33
7 51 -6 97 -26 90 -7 -3 -21 -18 -31 -33 l-17 -27 6 50 c8 61 8 57 0 130 -7
65 -2 76 86 192 17 22 32 55 34 72 1 17 9 39 17 49 21 23 48 78 48 96 0 8 17
28 37 43 63 47 93 93 61 93 -8 0 -14 14 -15 33 -1 27 3 33 20 34 45 4 62 13
79 43 10 18 23 28 29 24 8 -5 8 -1 0 14 -6 11 -11 23 -11 26 0 11 22 6 36 -9z
m-289 -22 c-4 -3 -10 -3 -14 0 -3 4 0 7 7 7 7 0 10 -3 7 -7z m1100 -10 c-4 -3
-10 -3 -14 0 -3 4 0 7 7 7 7 0 10 -3 7 -7z m193 -27 c0 -3 -4 -8 -10 -11 -5
-3 -10 -1 -10 4 0 6 5 11 10 11 6 0 10 -2 10 -4z m-1853 -103 c-4 -3 -10 -3
-14 0 -3 4 0 7 7 7 7 0 10 -3 7 -7z m923 -63 c0 -5 -4 -10 -10 -10 -5 0 -10 5
-10 10 0 6 5 10 10 10 6 0 10 -4 10 -10z m-650 -25 c0 -8 -4 -15 -9 -15 -13 0
-22 16 -14 24 11 11 23 6 23 -9z m260 -45 c0 -5 -4 -10 -10 -10 -5 0 -10 5
-10 10 0 6 5 10 10 10 6 0 10 -4 10 -10z m207 -37 c-4 -3 -10 -3 -14 0 -3 4 0
7 7 7 7 0 10 -3 7 -7z m140 -30 c-4 -3 -7 0 -7 7 0 7 3 10 7 7 3 -4 3 -10 0
-14z m153 -94 c0 -5 -7 -9 -15 -9 -15 0 -20 12 -9 23 8 8 24 -1 24 -14z
m-1030 -13 c0 -3 -4 -8 -10 -11 -5 -3 -10 -1 -10 4 0 6 5 11 10 11 6 0 10 -2
10 -4z m290 -6 c0 -5 -5 -10 -11 -10 -5 0 -7 5 -4 10 3 6 8 10 11 10 2 0 4 -4
4 -10z m1400 -30 c0 -5 -4 -10 -10 -10 -5 0 -10 5 -10 10 0 6 5 10 10 10 6 0
10 -4 10 -10z m-300 -74 c0 -3 -4 -8 -10 -11 -5 -3 -10 -1 -10 4 0 6 5 11 10
11 6 0 10 -2 10 -4z m-1023 -32 c-3 -3 -12 -4 -19 -1 -8 3 -5 6 6 6 11 1 17
-2 13 -5z m1623 -18 c0 -3 -4 -8 -10 -11 -5 -3 -10 -1 -10 4 0 6 5 11 10 11 6
0 10 -2 10 -4z m-733 -43 c-4 -3 -10 -3 -14 0 -3 4 0 7 7 7 7 0 10 -3 7 -7z
m280 -20 c-4 -3 -10 -3 -14 0 -3 4 0 7 7 7 7 0 10 -3 7 -7z m613 -3 c0 -5 -5
-10 -11 -10 -5 0 -7 5 -4 10 3 6 8 10 11 10 2 0 4 -4 4 -10z m-1800 -10 c0 -5
-5 -10 -11 -10 -5 0 -7 5 -4 10 3 6 8 10 11 10 2 0 4 -4 4 -10z m567 -7 c-4
-3 -10 -3 -14 0 -3 4 0 7 7 7 7 0 10 -3 7 -7z m-227 -13 c0 -5 -4 -10 -10 -10
-5 0 -10 5 -10 10 0 6 5 10 10 10 6 0 10 -4 10 -10z m47 -27 c-4 -3 -10 -3
-14 0 -3 4 0 7 7 7 7 0 10 -3 7 -7z m-137 -33 c0 -5 -4 -10 -10 -10 -5 0 -10
5 -10 10 0 6 5 10 10 10 6 0 10 -4 10 -10z m947 -37 c-4 -3 -10 -3 -14 0 -3 4
0 7 7 7 7 0 10 -3 7 -7z m-1267 -64 c0 -5 -7 -9 -15 -9 -15 0 -20 12 -9 23 8
8 24 -1 24 -14z m995 11 c3 -5 1 -10 -4 -10 -6 0 -11 5 -11 10 0 6 2 10 4 10
3 0 8 -4 11 -10z m520 0 c3 -5 1 -10 -4 -10 -6 0 -11 5 -11 10 0 6 2 10 4 10
3 0 8 -4 11 -10z m-898 -27 c-4 -3 -7 0 -7 7 0 7 3 10 7 7 3 -4 3 -10 0 -14z
m1000 0 c-4 -3 -7 0 -7 7 0 7 3 10 7 7 3 -4 3 -10 0 -14z m-1917 -73 c0 -5 -4
-10 -10 -10 -5 0 -10 5 -10 10 0 6 5 10 10 10 6 0 10 -4 10 -10z m787 -7 c-4
-3 -7 0 -7 7 0 7 3 10 7 7 3 -4 3 -10 0 -14z m-237 3 c0 -11 -19 -15 -25 -6
-3 5 1 10 9 10 9 0 16 -2 16 -4z m1030 -146 c0 -5 -4 -10 -10 -10 -5 0 -10 5
-10 10 0 6 5 10 10 10 6 0 10 -4 10 -10z m160 -5 c0 -8 -7 -15 -15 -15 -8 0
-15 7 -15 15 0 8 7 15 15 15 8 0 15 -7 15 -15z m-1083 -51 c-9 -9 -28 6 -21
18 4 6 10 6 17 -1 6 -6 8 -13 4 -17z m613 22 c0 -3 -4 -8 -10 -11 -5 -3 -10
-1 -10 4 0 6 5 11 10 11 6 0 10 -2 10 -4z m-780 -46 c0 -5 -4 -10 -10 -10 -5
0 -10 5 -10 10 0 6 5 10 10 10 6 0 10 -4 10 -10z m657 -7 c-4 -3 -10 -3 -14 0
-3 4 0 7 7 7 7 0 10 -3 7 -7z m290 -69 c-3 -3 -12 -4 -19 -1 -8 3 -5 6 6 6 11
1 17 -2 13 -5z m340 -11 c-4 -3 -7 0 -7 7 0 7 3 10 7 7 3 -4 3 -10 0 -14z
m-150 0 c-4 -3 -10 -3 -14 0 -3 4 0 7 7 7 7 0 10 -3 7 -7z m-252 -53 c3 -5 1
-10 -4 -10 -6 0 -11 5 -11 10 0 6 2 10 4 10 3 0 8 -4 11 -10z m280 -140 c3 -5
1 -10 -4 -10 -6 0 -11 5 -11 10 0 6 2 10 4 10 3 0 8 -4 11 -10z m-275 -10 c0
-5 -5 -10 -11 -10 -5 0 -7 5 -4 10 3 6 8 10 11 10 2 0 4 -4 4 -10z m467 -47
c-4 -3 -7 0 -7 7 0 7 3 10 7 7 3 -4 3 -10 0 -14z m-1327 -63 c0 -5 -4 -10 -10
-10 -5 0 -10 5 -10 10 0 6 5 10 10 10 6 0 10 -4 10 -10z m315 0 c3 -5 1 -10
-4 -10 -6 0 -11 5 -11 10 0 6 2 10 4 10 3 0 8 -4 11 -10z m662 -17 c-4 -3 -7
0 -7 7 0 7 3 10 7 7 3 -4 3 -10 0 -14z"/>
</g>
</svg>
